<svg width="1600" height="900" viewBox="0 0 1600 900" xmlns="http://www.w3.org/2000/svg">
  <defs>
    <symbol id="cap" viewBox="0 0 120 90">
      <path d="M10 60 Q10 20 60 20 Q110 20 110 60 L118 64 Q110 72 60 72 Q40 72 10 60 Z" fill="#2a2a2a"/>
      <path d="M10 60 L118 64 Q112 76 70 78 L20 70 Z" fill="#1a1a1a"/>
      <circle cx="60" cy="24" r="5" fill="#3a3a3a"/>
      <path d="M40 30 Q60 24 80 30" stroke="#e02020" stroke-width="3" fill="none"/>
    </symbol>

    <symbol id="sneaker" viewBox="0 0 140 80">
      <path d="M8 60 Q6 40 30 36 Q40 20 64 22 Q90 24 100 36 L128 42 Q136 46 134 56 Q132 64 118 64 L20 66 Q8 66 8 60 Z" fill="#2a2a2a"/>
      <path d="M30 36 Q40 20 64 22 Q90 24 100 36" stroke="#e02020" stroke-width="3" fill="none"/>
      <path d="M8 60 L134 56 L134 62 Q134 68 122 68 L18 70 Q8 70 8 60 Z" fill="#111"/>
      <circle cx="46" cy="44" r="2.5" fill="#555"/>
      <circle cx="58" cy="40" r="2.5" fill="#555"/>
      <circle cx="70" cy="38" r="2.5" fill="#555"/>
    </symbol>

    <symbol id="figure" viewBox="0 0 90 110">
      <rect x="20" y="10" width="50" height="46" rx="14" fill="#2a2a2a"/>
      <rect x="30" y="24" width="12" height="8" rx="3" fill="#e02020"/>
      <rect x="48" y="24" width="12" height="8" rx="3" fill="#e02020"/>
      <rect x="14" y="56" width="62" height="40" rx="12" fill="#222"/>
      <rect x="6" y="60" width="14" height="30" rx="6" fill="#2a2a2a"/>
      <rect x="70" y="60" width="14" height="30" rx="6" fill="#2a2a2a"/>
      <rect x="24" y="96" width="16" height="14" rx="5" fill="#1a1a1a"/>
      <rect x="50" y="96" width="16" height="14" rx="5" fill="#1a1a1a"/>
    </symbol>
  </defs>

  <rect width="1600" height="900" fill="#0a0a0a"/>

  <g opacity="0.55">
    <use href="#cap" x="20" y="10" width="160" height="120" transform="rotate(-8 100 70)"/>
    <use href="#sneaker" x="190" y="60" width="190" height="110" transform="rotate(6 285 115)"/>
    <use href="#figure" x="400" y="-10" width="130" height="160" transform="rotate(-4 465 70)"/>
    <use href="#cap" x="540" y="40" width="170" height="130" transform="rotate(10 625 105)"/>
    <use href="#sneaker" x="720" y="-10" width="200" height="120" transform="rotate(-10 820 50)"/>
    <use href="#figure" x="940" y="20" width="120" height="150" transform="rotate(7 1000 95)"/>
    <use href="#cap" x="1070" y="-10" width="160" height="120" transform="rotate(-6 1150 50)"/>
    <use href="#sneaker" x="1240" y="40" width="190" height="110" transform="rotate(8 1335 95)"/>
    <use href="#figure" x="1430" y="-10" width="130" height="160" transform="rotate(-9 1495 70)"/>

    <use href="#sneaker" x="-10" y="220" width="190" height="110" transform="rotate(-12 85 275)"/>
    <use href="#figure" x="170" y="200" width="120" height="150" transform="rotate(5 230 275)"/>
    <use href="#cap" x="300" y="240" width="160" height="120" transform="rotate(9 380 300)"/>
    <use href="#sneaker" x="470" y="210" width="200" height="120" transform="rotate(-7 570 270)"/>
    <use href="#figure" x="690" y="230" width="120" height="150" transform="rotate(4 750 305)"/>
    <use href="#cap" x="830" y="200" width="170" height="130" transform="rotate(-10 915 265)"/>
    <use href="#sneaker" x="1010" y="240" width="190" height="110" transform="rotate(11 1105 295)"/>
    <use href="#figure" x="1220" y="210" width="130" height="160" transform="rotate(-5 1285 290)"/>
    <use href="#cap" x="1380" y="240" width="160" height="120" transform="rotate(7 1460 300)"/>

    <use href="#figure" x="-10" y="450" width="120" height="150" transform="rotate(-6 50 525)"/>
    <use href="#cap" x="120" y="420" width="170" height="130" transform="rotate(8 205 485)"/>
    <use href="#sneaker" x="300" y="460" width="200" height="120" transform="rotate(-9 400 520)"/>
    <use href="#figure" x="520" y="440" width="120" height="150" transform="rotate(5 580 515)"/>
    <use href="#cap" x="660" y="470" width="160" height="120" transform="rotate(-7 740 530)"/>
    <use href="#sneaker" x="840" y="430" width="190" height="110" transform="rotate(10 935 485)"/>
    <use href="#figure" x="1050" y="460" width="130" height="160" transform="rotate(-4 1115 540)"/>
    <use href="#cap" x="1200" y="430" width="170" height="130" transform="rotate(6 1285 495)"/>
    <use href="#sneaker" x="1380" y="470" width="190" height="110" transform="rotate(-11 1475 525)"/>

    <use href="#cap" x="40" y="660" width="160" height="120" transform="rotate(9 120 720)"/>
    <use href="#sneaker" x="220" y="690" width="200" height="120" transform="rotate(-6 320 750)"/>
    <use href="#figure" x="440" y="660" width="120" height="150" transform="rotate(7 500 735)"/>
    <use href="#cap" x="580" y="700" width="170" height="130" transform="rotate(-9 665 765)"/>
    <use href="#sneaker" x="770" y="660" width="190" height="110" transform="rotate(5 865 715)"/>
    <use href="#figure" x="970" y="690" width="130" height="160" transform="rotate(-5 1035 770)"/>
    <use href="#cap" x="1130" y="660" width="160" height="120" transform="rotate(8 1210 720)"/>
    <use href="#sneaker" x="1300" y="700" width="200" height="120" transform="rotate(-10 1400 760)"/>
    <use href="#figure" x="1480" y="660" width="110" height="150" transform="rotate(4 1535 735)"/>
  </g>
</svg>
